<svg version="1.1" xmlns="http://www.w3.org/2000/svg" xmlns:xlink="http://www.w3.org/1999/xlink" x="0px" y="0px"
     viewBox="0 0 3.7 6.6" xml:space="preserve">
        <path style="fill: #00d100;" d="M1.7,6.6V5.8C0.6,5.8,0.1,5.2,0,4.3h0.6c0.1,0.5,0.4,0.9,1,1V3.4l-0.1,0C0.7,3.2,0.2,2.8,0.2,1.9
            c0-0.7,0.6-1.3,1.5-1.4V0h0.5v0.6C3.1,0.6,3.6,1.2,3.6,2H3C3,1.6,2.7,1.2,2.1,1.1v1.8l0.2,0c1,0.2,1.4,0.7,1.4,1.4
            c0,0.9-0.6,1.4-1.6,1.5v0.8H1.7z M1.7,1.1C1.1,1.1,0.8,1.5,0.8,1.9c0,0.5,0.3,0.8,0.8,0.9l0,0V1.1z M2.2,5.3
            c0.7-0.1,0.9-0.4,0.9-0.9c0-0.4-0.3-0.8-0.9-0.9l-0.1,0L2.2,5.3L2.2,5.3z"/>
</svg>
