<svg version="1.1" xmlns="http://www.w3.org/2000/svg" xmlns:xlink="http://www.w3.org/1999/xlink" x="0px" y="0px" viewBox="0 0 25 20" xml:space="preserve">
        <path style="fill: #aaa;"
            d="M9.6,16.6v-1.5c-2.1-0.1-3.2-1.4-3.3-3.1h1.2
            c0.2,1,0.7,1.8,2.1,2v-3.8l-0.3,0C7.6,9.8,6.6,8.9,6.6,7.3c0-1.5,1.2-2.6,2.9-2.7V3.4h0.9v1.1c1.9,0.2,3,1.3,3,2.9h-1.2
            c-0.1-0.9-0.6-1.7-1.8-1.9v3.7l0.4,0.1c2.1,0.4,2.8,1.3,2.8,2.8c0,1.8-1.1,2.9-3.2,3v1.5H9.6z
            M9.6,5.5C8.5,5.7,7.8,6.4,7.8,7.3 c0,1.1,0.7,1.6,1.6,1.7l0.1,0V5.5z
            M10.6,14c1.4-0.2,1.9-0.9,1.9-1.8c0-0.9-0.5-1.5-1.8-1.8l-0.2,0L10.6,14L10.6,14z"/>
</svg>
