
<svg width="11px" height="19px" viewBox="-1 0 11 19" version="1.1" xmlns="http://www.w3.org/2000/svg" xmlns:xlink="http://www.w3.org/1999/xlink">
    <!-- Generator: Sketch 42 (36781) - http://www.bohemiancoding.com/sketch -->
    <desc>Created with Sketch.</desc>
    <defs></defs>
    <g id="Icon-/-Editor-/-$-/-Inactive" stroke="none" fill="none" stroke-width="1" fill-rule="evenodd">
        <g id="Icon---$" transform="translate(0.000000, 1.000000)" fill="#AAA">
            <path d="M5.6196,13.8295 C7.4076,13.6285 8.0826,12.6985 8.0826,11.4395 C8.0826,10.2715 7.3896,9.4505 5.7286,9.1405 L5.5106,9.1045 L5.5106,13.8295 L5.6196,13.8295 Z M4.3056,2.7725 C2.8456,2.9735 2.0436,3.9225 2.0436,5.0355 C2.0436,6.4225 2.9006,7.0795 4.1786,7.2975 L4.3056,7.3155 L4.3056,2.7725 Z M4.3056,17.2235 L4.3056,15.2345 C1.5146,15.0515 0.2006,13.4455 -0.000400000001,11.2385 L1.6236,11.2385 C1.8246,12.4975 2.5366,13.6465 4.3056,13.8475 L4.3056,8.8665 L3.9776,8.8125 C1.7326,8.3925 0.4746,7.2435 0.4746,5.0355 C0.4746,3.1375 2.0436,1.6785 4.3056,1.4595 L4.3056,-0.0005 L5.5106,-0.0005 L5.5106,1.4595 C7.9736,1.6785 9.3596,3.1375 9.4696,5.2545 L7.8636,5.2545 C7.7176,4.0685 7.0796,3.0105 5.5106,2.7725 L5.5106,7.5355 L6.0396,7.6265 C8.7396,8.1005 9.7246,9.3775 9.7246,11.2935 C9.7246,13.5925 8.2656,15.0335 5.5106,15.2345 L5.5106,17.2235 L4.3056,17.2235 Z" id="Fill-1"></path>
        </g>
    </g>
</svg>