<svg xmlns="http://www.w3.org/2000/svg" xmlns:xlink="http://www.w3.org/1999/xlink" x="0" y="0" viewBox="0 0 30 30" version="1.1">
<g transform="translate(7.5 7.5) scale(0.5)" fill="#FFFFFF">
    <path d="
        M18.2,19.4l2,-2l0,-9.7l-6.3,0l0,4.9l2.1,2l-2.1,2.1l0,9.6l6.3,0l0,-4.9
        Z"/>
    <path d="
        M17.1,29.7
        C10.1,29.7,4.4,24,4.4,17
        C4.4,10,10.1,4.3,17.1,4.3c7,0,12.6,5.7,12.6,12.7c0,7,-5.6,12.7,-12.6,12.7m0,-29.5
        C7.8,0.2,0.3,7.7,0.3,17c0,9.3,7.5,16.8,16.8,16.8c9.3,0,16.8,-7.5,16.8,-16.8
        C33.9,7.7,26.4,0.2,17.1,0.2
        Z"/>
</g>
</svg>
