<svg width="60px" height="19px" viewBox="0 0 60 19" version="1.1" xmlns="http://www.w3.org/2000/svg" xmlns:xlink="http://www.w3.org/1999/xlink">
<!-- Generator: Sketch 44.1 (41455) - http://www.bohemiancoding.com/sketch -->
<desc>Created with Sketch.</desc>
<defs></defs>
<g id="Following" stroke="none" stroke-width="1" fill="none" fill-rule="evenodd">
<g id="iPhone-7---Editorial" transform="translate(-158.000000, -41.000000)" fill="#000000">
<g id="Ello-Logotype" transform="translate(158.000000, 40.000000)">
<polygon id="Fill-3" points="0.553093412 18.8839646 13.0829656 18.8839646 13.0829656 14.3044562 5.9500649 14.3044562 5.9500649 12.3233353 12.5311465 12.3233353 12.5311465 7.78481023 5.9500649 7.78481023 5.9500649 5.80368928 13.0829656 5.80368928 13.0829656 1.20372861 0.553093412 1.20372861"></polygon>
<polygon id="Fill-5" points="20.452468 1.20374435 15.0555752 1.20374435 15.0555752 18.8839803 27.1969322 18.8839803 27.1969322 14.2226627 20.452468 14.2226627"></polygon>
<polygon id="Fill-7" points="34.5711937 1.20374435 29.1742222 1.20374435 29.1742222 18.8839803 41.3156578 18.8839803 41.3156578 14.2226627 34.5711937 14.2226627"></polygon>
<path d="M53.7152802,10.0949774 C53.7152802,11.6944267 53.4339036,12.9529518 52.9015143,13.7347021 C52.453058,14.3931091 51.8235988,14.7131878 50.9773451,14.7131878 C50.0901082,14.7131878 49.473707,14.409471 49.0377581,13.7572783 C48.5215733,12.9851249 48.2597837,11.7529518 48.2597837,10.0949774 C48.2597837,8.46563618 48.5386431,7.19059194 49.066234,6.40766175 C49.5130383,5.74461357 50.1203147,5.43578368 50.9773451,5.43578368 C51.7548476,5.43578368 52.3836775,5.77238151 52.8464503,6.43629499 C53.4148673,7.25171288 53.7152802,8.51684562 53.7152802,10.0949774 M57.13294,3.3985762 C55.6650147,1.81564602 53.5364798,0.978910521 50.9773451,0.978910521 C45.8741003,0.978910521 42.5766372,4.55719961 42.5766372,10.0949774 C42.5766372,12.9353314 43.3177188,15.1842203 44.7792724,16.7791858 C46.2371288,18.370061 48.3803736,19.2108869 50.9773451,19.2108869 C53.4908555,19.2108869 55.6056244,18.3669145 57.0931367,16.7699823 C58.5879646,15.1652625 59.3780531,12.8570619 59.3780531,10.0949774 C59.3780531,7.29788791 58.6017306,4.98229302 57.13294,3.3985762" id="Fill-9"></path>
</g>
</g>
</g>
</svg>
