
<svg width="20px" height="20px" viewBox="-1 0 20 20" version="1.1" xmlns="http://www.w3.org/2000/svg" xmlns:xlink="http://www.w3.org/1999/xlink">
    <!-- Generator: Sketch 42 (36781) - http://www.bohemiancoding.com/sketch -->
    <desc>Created with Sketch.</desc>
    <defs></defs>
    <g id="Icon-/-Editor-/-$-/-Active" stroke="none" fill="none">
        <path d="M5.6196,15.8295 C7.4076,15.6285 8.0826,14.6985 8.0826,13.4395 C8.0826,12.2715 7.3896,11.4505 5.7286,11.1405 L5.5106,11.1045 L5.5106,15.8295 L5.6196,15.8295 Z M4.3056,4.7725 C2.8456,4.9735 2.0436,5.9225 2.0436,7.0355 C2.0436,8.4225 2.9006,9.0795 4.1786,9.2975 L4.3056,9.3155 L4.3056,4.7725 Z M4.3056,19.2235 L4.3056,17.2345 C1.5146,17.0515 0.2006,15.4455 -0.000400000001,13.2385 L1.6236,13.2385 C1.8246,14.4975 2.5366,15.6465 4.3056,15.8475 L4.3056,10.8665 L3.9776,10.8125 C1.7326,10.3925 0.4746,9.2435 0.4746,7.0355 C0.4746,5.1375 2.0436,3.6785 4.3056,3.4595 L4.3056,1.9995 L5.5106,1.9995 L5.5106,3.4595 C7.9736,3.6785 9.3596,5.1375 9.4696,7.2545 L7.8636,7.2545 C7.7176,6.0685 7.0796,5.0105 5.5106,4.7725 L5.5106,9.5355 L6.0396,9.6265 C8.7396,10.1005 9.7246,11.3775 9.7246,13.2935 C9.7246,15.5925 8.2656,17.0335 5.5106,17.2345 L5.5106,19.2235 L4.3056,19.2235 Z" id="Fill-1" fill="#000000" fill-rule="evenodd"></path>
        <polyline id="Page-1" stroke="#00D100" stroke-width="1.25" stroke-linejoin="bevel" points="12 5.61573 14.458 8.70673 18 2.70673"></polyline>
    </g>
</svg>