<svg width="56px" height="35px" viewBox="160 5 56 35" version="1.1" xmlns="http://www.w3.org/2000/svg" xmlns:xlink="http://www.w3.org/1999/xlink">
    <!-- Generator: Sketch 42 (36781) - http://www.bohemiancoding.com/sketch -->
    <desc>Created with Sketch.</desc>
    <defs></defs>
    <g id="Nav-/-Omnibar" stroke="none" fill="none" transform="translate(160.000000, 5.000000)" fill-rule="evenodd">
        <path d="M0,6.00025246 C0,2.68640453 2.6821302,0 5.99298096,0 L50.007019,0 C53.316851,0 56,2.68211672 56,6.00025246 L56,27.9997475 C56,31.3135955 53.3178698,34 50.007019,34 L5.99298096,34 C2.68314897,34 0,31.3178833 0,27.9997475 L0,6.00025246 Z M28,27 C33.5228475,27 38,22.5228475 38,17 C38,11.4771525 33.5228475,7 28,7 C22.4771525,7 18,11.4771525 18,17 C18,22.5228475 22.4771525,27 28,27 Z" fill="#CCCCCC"></path>
    </g>
</svg>
