<svg viewBox="0 0 16 14" version="1.1" xmlns="http://www.w3.org/2000/svg" xmlns:xlink="http://www.w3.org/1999/xlink">
    <g id="Omnibar" stroke="none" fill="#aaa" fill-rule="evenodd">
        <path d="M10.196265,0.82 L0.18,0.82 L0.18,2.1222752 L4.44053,2.1222752 L4.44053,13.1192661 L5.935735,13.1192661 L5.935735,2.1222752 L10.196265,2.1222752 L10.196265,0.82 Z
            M12.414956,2.1865851 L12.414956,2.7975291 C12.414956,4.4213537 12.157717,4.6946707 11.016216,4.6946707 L10.758977,4.6946707 L10.758977,5.7557839 L12.302414,5.7557839 L12.302414,10.9970398 C12.302414,12.4440122 12.96159,13.2478858 14.61757,13.2478858 C15.357134,13.2478858 15.952,13.151421 15.952,13.151421 L15.952,11.9295331 C15.952,11.9295331 15.453598,12.0099205 15.019507,12.0099205 C14.103091,12.0099205 13.733309,11.6562161 13.733309,10.7558777 L13.733309,5.7557839 L15.82338,5.7557839 L15.82338,4.6464383 L13.733309,4.6464383 L13.733309,2.1865851 L12.414956,2.1865851 Z" id="Tt"></path>
    </g>
</svg>
