<svg width="30px" height="24px" viewBox="-1 -1 30 24" version="1.1" xmlns="http://www.w3.org/2000/svg" xmlns:xlink="http://www.w3.org/1999/xlink">
    <!-- Generator: Sketch 42 (36781) - http://www.bohemiancoding.com/sketch -->
    <desc>Created with Sketch.</desc>
    <defs></defs>
    <path d="M20.6277088,17.3424603 C18.0547316,17.3424603 15.9701691,19.4281228 15.9701691,22 C15.9701691,19.4281228 13.8845065,17.3424603 11.3115293,17.3424603 C13.8845065,17.3424603 15.9701691,15.2567977 15.9701691,12.6849205 C15.9701691,15.2567977 18.0547316,17.3424603 20.6277088,17.3424603 Z M13.3081992,7.10214306 C9.63298899,7.10214306 6.65409962,10.0810324 6.65409962,13.7562427 C6.65409962,10.0810324 3.67521026,7.10214306 0,7.10214306 C3.67521026,7.10214306 6.65409962,4.1232537 6.65409962,0.448043441 C6.65409962,4.1232537 9.63298899,7.10214306 13.3081992,7.10214306 Z M27.300729,4.65753973 C24.7277518,4.65753973 22.6431893,6.7432023 22.6431893,9.31507945 C22.6431893,6.7432023 20.5575267,4.65753973 17.9845495,4.65753973 C20.5575267,4.65753973 22.6431893,2.57187716 22.6431893,0 C22.6431893,2.57187716 24.7277518,4.65753973 27.300729,4.65753973 Z" id="Combined-Shape" stroke="#000000" stroke-width="1.5" stroke-linecap="round" fill="none"></path>
</svg>
