<svg width="30px" height="24px" viewBox="94 10 30 24" version="1.1" xmlns="http://www.w3.org/2000/svg" xmlns:xlink="http://www.w3.org/1999/xlink">
    <!-- Generator: Sketch 42 (36781) - http://www.bohemiancoding.com/sketch -->
    <desc>Created with Sketch.</desc>
    <defs></defs>
    <g id="Nav-/-Discover" stroke="none" fill="none" transform="translate(95.000000, 11.000000)" stroke-width="1.5" stroke-linecap="round">
        <path d="M20.6277088,17.3427603 C18.0547316,17.3427603 15.9701691,19.4284228 15.9701691,22.0003 C15.9701691,19.4284228 13.8845065,17.3427603 11.3115293,17.3427603 C13.8845065,17.3427603 15.9701691,15.2570977 15.9701691,12.6852205 C15.9701691,15.2570977 18.0547316,17.3427603 20.6277088,17.3427603 Z M13.3081992,7.10244306 C9.63298899,7.10244306 6.65409962,10.0813324 6.65409962,13.7565427 C6.65409962,10.0813324 3.67521026,7.10244306 0,7.10244306 C3.67521026,7.10244306 6.65409962,4.1235537 6.65409962,0.448343441 C6.65409962,4.1235537 9.63298899,7.10244306 13.3081992,7.10244306 Z M27.300729,4.65783973 C24.7277518,4.65783973 22.6431893,6.7435023 22.6431893,9.31537945 C22.6431893,6.7435023 20.5575267,4.65783973 17.9845495,4.65783973 C20.5575267,4.65783973 22.6431893,2.57217716 22.6431893,0.0003 C22.6431893,2.57217716 24.7277518,4.65783973 27.300729,4.65783973 Z" id="Combined-Shape" stroke="#AAAAAA"></path>
    </g>
</svg>
